Crispy Narrow Medium-MaxGrade.ufo
<glyph name="exclam" format="2">
  <advance width="215"/>
  <unicode hex="0021"/>
  <outline>
    <contour>
      <point x="40" y="254" type="line"/>
      <point x="175" y="254" type="line"/>
      <point x="184" y="1600" type="line"/>
      <point x="31" y="1600" type="line"/>
    </contour>
    <component base="period" xOffset="5"/>
  </outline>
</glyph>
<glyph name="ampersand" format="2">
  <advance width="674"/>
  <unicode hex="0026"/>
  <outline>
    <contour>
      <point x="-57" y="683" type="line"/>
      <point x="-57" y="0" type="line"/>
      <point x="322" y="0" type="line"/>
      <point x="406" y="511" type="line"/>
      <point x="408" y="511" type="line"/>
      <point x="526" y="-36" type="line"/>
      <point x="666" y="-11" type="line"/>
      <point x="533" y="609" type="line"/>
      <point x="299" y="609" type="line"/>
      <point x="219" y="130" type="line"/>
      <point x="84" y="130" type="line"/>
      <point x="84" y="609" type="line"/>
      <point x="234" y="609" type="line"/>
      <point x="234" y="1191" type="line"/>
      <point x="294" y="1451" type="line"/>
      <point x="343" y="1451" type="line"/>
      <point x="343" y="958" type="line"/>
      <point x="484" y="958" type="line"/>
      <point x="484" y="1600" type="line"/>
      <point x="190" y="1600" type="line"/>
      <point x="93" y="1217" type="line"/>
      <point x="93" y="683" type="line"/>
    </contour>
  </outline>
</glyph>
<glyph name="asterisk" format="2">
  <advance width="216"/>
  <unicode hex="002A"/>
  <outline>
    <contour>
      <point x="52" y="1414" type="line"/>
      <point x="108" y="1482" type="line"/>
      <point x="164" y="1414" type="line"/>
      <point x="193" y="1438" type="line"/>
      <point x="120" y="1495" type="line"/>
      <point x="213" y="1516" type="line"/>
      <point x="203" y="1542" type="line"/>
      <point x="118" y="1516" type="line"/>
      <point x="128" y="1601" type="line"/>
      <point x="88" y="1601" type="line"/>
      <point x="99" y="1516" type="line"/>
      <point x="12" y="1542" type="line"/>
      <point x="3" y="1517" type="line"/>
      <point x="97" y="1495" type="line"/>
      <point x="23" y="1436" type="line"/>
    </contour>
  </outline>
</glyph>
<glyph name="period" format="2">
  <advance width="199"/>
  <unicode hex="002E"/>
  <outline>
    <contour>
      <point x="178" y="0" type="line"/>
      <point x="178" y="171" type="line"/>
      <point x="22" y="171" type="line"/>
      <point x="22" y="0" type="line"/>
    </contour>
  </outline>
</glyph>
<glyph name="A" format="2">
  <advance width="448"/>
  <unicode hex="0041"/>
  <outline>
    <contour>
      <point x="31" y="0" type="line"/>
      <point x="183" y="0" type="line"/>
      <point x="183" y="1317" type="line"/>
      <point x="218" y="1451" type="line"/>
      <point x="265" y="1451" type="line"/>
      <point x="265" y="0" type="line"/>
      <point x="417" y="0" type="line"/>
      <point x="417" y="1600" type="line"/>
      <point x="106" y="1600" type="line"/>
      <point x="31" y="1322" type="line"/>
    </contour>
    <contour>
      <point x="116" y="651" type="line"/>
      <point x="337" y="651" type="line"/>
      <point x="337" y="800" type="line"/>
      <point x="116" y="800" type="line"/>
    </contour>
  </outline>
</glyph>
<glyph name="X" format="2">
  <advance width="402"/>
  <unicode hex="0058"/>
  <outline>
    <contour>
      <point x="276" y="2" type="line"/>
      <point x="432" y="2" type="line"/>
      <point x="432" y="133" type="line"/>
      <point x="382" y="133" type="line"/>
      <point x="161" y="1600" type="line"/>
      <point x="8" y="1600" type="line"/>
      <point x="8" y="1470" type="line"/>
      <point x="55" y="1470" type="line"/>
    </contour>
    <contour>
      <point x="26" y="-6" type="line"/>
      <point x="155" y="-7" type="line"/>
      <point x="203" y="793" type="line"/>
      <point x="95" y="793" type="line"/>
    </contour>
    <contour>
      <point x="237" y="809" type="line"/>
      <point x="344" y="809" type="line"/>
      <point x="406" y="1608" type="line"/>
      <point x="277" y="1611" type="line"/>
    </contour>
  </outline>
</glyph>
<glyph name="a" format="2">
  <advance width="394"/>
  <unicode hex="0061"/>
  <outline>
    <contour>
      <point x="19" y="0" type="line"/>
      <point x="201" y="0" type="line"/>
      <point x="233" y="122" type="line"/>
      <point x="233" y="0" type="line"/>
      <point x="363" y="0" type="line"/>
      <point x="363" y="1200" type="line"/>
      <point x="105" y="1200" type="line"/>
      <point x="19" y="826" type="line"/>
    </contour>
    <contour>
      <point x="148" y="130" type="line"/>
      <point x="148" y="764" type="line"/>
      <point x="214" y="1070" type="line"/>
      <point x="233" y="1070" type="line"/>
      <point x="233" y="130" type="line"/>
    </contour>
  </outline>
</glyph>
<glyph name="b" format="2">
  <advance width="393"/>
  <unicode hex="0062"/>
  <outline>
    <contour>
      <point x="26" y="0" type="line"/>
      <point x="26" y="1700" type="line"/>
      <point x="156" y="1700" type="line"/>
      <point x="156" y="131" type="line"/>
      <point x="193" y="131" type="line"/>
      <point x="236" y="290" type="line"/>
      <point x="236" y="1070" type="line"/>
      <point x="154" y="1070" type="line"/>
      <point x="154" y="1103" type="line"/>
      <point x="204" y="1200" type="line"/>
      <point x="366" y="1200" type="line"/>
      <point x="366" y="168" type="line"/>
      <point x="314" y="0" type="line"/>
    </contour>
  </outline>
</glyph>
<glyph name="h" format="2">
  <advance width="385"/>
  <unicode hex="0068"/>
  <outline>
    <contour>
      <point x="227" y="0" type="line"/>
      <point x="227" y="1070" type="line"/>
      <point x="155" y="1070" type="line"/>
      <point x="155" y="1073" type="line"/>
      <point x="200" y="1200" type="line"/>
      <point x="357" y="1200" type="line"/>
      <point x="357" y="0" type="line"/>
    </contour>
    <contour>
      <point x="27" y="0" type="line"/>
      <point x="27" y="1700" type="line"/>
      <point x="157" y="1700" type="line"/>
      <point x="157" y="0" type="line"/>
    </contour>
  </outline>
</glyph>
<glyph name="i" format="2">
  <advance width="199"/>
  <unicode hex="0069"/>
  <outline>
    <contour>
      <point x="35" y="0" type="line"/>
      <point x="165" y="0" type="line"/>
      <point x="165" y="1200" type="line"/>
      <point x="35" y="1200" type="line"/>
    </contour>
    <contour>
      <point x="35" y="1272" type="line"/>
      <point x="165" y="1272" type="line"/>
      <point x="165" y="1451" type="line"/>
      <point x="35" y="1451" type="line"/>
    </contour>
  </outline>
</glyph>
<glyph name="k" format="2">
  <advance width="397"/>
  <unicode hex="006B"/>
  <outline>
    <contour>
      <point x="161" y="679" type="line"/>
      <point x="243" y="679" type="line"/>
      <point x="243" y="0" type="line"/>
      <point x="373" y="0" type="line"/>
      <point x="373" y="809" type="line"/>
      <point x="311" y="809" type="line"/>
      <point x="314" y="804" type="line"/>
      <point x="366" y="1196" type="line"/>
      <point x="245" y="1204" type="line"/>
      <point x="192" y="809" type="line"/>
      <point x="161" y="809" type="line"/>
    </contour>
    <contour>
      <point x="35" y="0" type="line"/>
      <point x="164" y="0" type="line"/>
      <point x="164" y="1705" type="line"/>
      <point x="35" y="1705" type="line"/>
    </contour>
  </outline>
</glyph>
<glyph name="l" format="2">
  <advance width="234"/>
  <unicode hex="006C"/>
  <outline>
    <contour>
      <point x="42" y="0" type="line"/>
      <point x="193" y="0" type="line"/>
      <point x="193" y="1695" type="line"/>
      <point x="42" y="1695" type="line"/>
    </contour>
  </outline>
</glyph>
<glyph name="m" format="2">
  <advance width="603"/>
  <unicode hex="006D"/>
  <outline>
    <contour>
      <point x="26" y="0" type="line"/>
      <point x="156" y="0" type="line"/>
      <point x="156" y="946" type="line"/>
      <point x="200" y="1100" type="line"/>
      <point x="234" y="1100" type="line"/>
      <point x="234" y="0" type="line"/>
      <point x="364" y="0" type="line"/>
      <point x="364" y="1200" type="line"/>
      <point x="79" y="1200" type="line"/>
      <point x="26" y="1032" type="line"/>
    </contour>
    <contour>
      <point x="441" y="0" type="line"/>
      <point x="571" y="0" type="line"/>
      <point x="571" y="1200" type="line"/>
      <point x="405" y="1200" type="line"/>
      <point x="353" y="1103" type="line"/>
      <point x="353" y="1100" type="line"/>
      <point x="441" y="1100" type="line"/>
    </contour>
  </outline>
</glyph>
<glyph name="o" format="2">
  <advance width="394"/>
  <unicode hex="006F"/>
  <outline>
    <contour>
      <point x="368" y="169" type="line"/>
      <point x="368" y="1200" type="line"/>
      <point x="79" y="1200" type="line"/>
      <point x="27" y="1032" type="line"/>
      <point x="27" y="0" type="line"/>
      <point x="315" y="0" type="line"/>
    </contour>
    <contour>
      <point x="238" y="272" type="line"/>
      <point x="194" y="130" type="line"/>
      <point x="156" y="130" type="line"/>
      <point x="156" y="928" type="line"/>
      <point x="200" y="1070" type="line"/>
      <point x="238" y="1070" type="line"/>
    </contour>
  </outline>
</glyph>
<glyph name="s" format="2">
  <advance width="273"/>
  <unicode hex="0073"/>
  <outline>
    <contour>
      <point x="17" y="0" type="line"/>
      <point x="202" y="0" type="line"/>
      <point x="254" y="165" type="line"/>
      <point x="254" y="663" type="line"/>
      <point x="150" y="663" type="line"/>
      <point x="150" y="943" type="line"/>
      <point x="188" y="1070" type="line"/>
      <point x="251" y="1070" type="line"/>
      <point x="251" y="1200" type="line"/>
      <point x="72" y="1200" type="line"/>
      <point x="21" y="1036" type="line"/>
      <point x="21" y="556" type="line"/>
      <point x="116" y="556" type="line"/>
      <point x="116" y="258" type="line"/>
      <point x="72" y="130" type="line"/>
      <point x="17" y="130" type="line"/>
    </contour>
  </outline>
</glyph>
<glyph name="u" format="2">
  <advance width="395"/>
  <unicode hex="0075"/>
  <outline>
    <contour>
      <point x="31" y="0" type="line"/>
      <point x="316" y="0" type="line"/>
      <point x="370" y="198" type="line"/>
      <point x="370" y="1200" type="line"/>
      <point x="240" y="1200" type="line"/>
      <point x="240" y="280" type="line"/>
      <point x="196" y="120" type="line"/>
      <point x="161" y="120" type="line"/>
      <point x="161" y="1200" type="line"/>
      <point x="31" y="1200" type="line"/>
    </contour>
  </outline>
</glyph>
<glyph name="v" format="2">
  <advance width="378"/>
  <unicode hex="0076"/>
  <outline>
    <contour>
      <point x="34" y="0" type="line"/>
      <point x="330" y="0" type="line"/>
      <point x="370" y="1197" type="line"/>
      <point x="241" y="1201" type="line"/>
      <point x="206" y="127" type="line"/>
      <point x="161" y="127" type="line"/>
      <point x="161" y="1200" type="line"/>
      <point x="34" y="1200" type="line"/>
    </contour>
  </outline>
</glyph>
<glyph name="y" format="2">
  <advance width="378"/>
  <unicode hex="0079"/>
  <outline>
    <contour>
      <point x="32" y="-61" type="line"/>
      <point x="205" y="-61" type="line"/>
      <point x="198" y="-303" type="line"/>
      <point x="326" y="-310" type="line"/>
      <point x="371" y="1200" type="line"/>
      <point x="241" y="1200" type="line"/>
      <point x="209" y="70" type="line"/>
      <point x="161" y="70" type="line"/>
      <point x="161" y="1200" type="line"/>
      <point x="32" y="1200" type="line"/>
    </contour>
  </outline>
</glyph>
<glyph name="z" format="2">
  <advance width="227"/>
  <unicode hex="007A"/>
  <outline>
    <contour>
      <point x="8" y="0" type="line"/>
      <point x="218" y="0" type="line"/>
      <point x="218" y="130" type="line"/>
      <point x="132" y="130" type="line"/>
      <point x="132" y="272" type="line"/>
      <point x="219" y="940" type="line"/>
      <point x="219" y="1200" type="line"/>
      <point x="14" y="1200" type="line"/>
      <point x="14" y="1070" type="line"/>
      <point x="95" y="1070" type="line"/>
      <point x="95" y="940" type="line"/>
      <point x="8" y="273" type="line"/>
    </contour>
  </outline>
</glyph>
<glyph name="asciitilde" format="2">
  <unicode hex="007E"/>
  <outline>
    <contour>
      <point x="-65" y="1762" type="line"/>
      <point x="57" y="1682" type="line"/>
      <point x="63" y="1682" type="line"/>
      <point x="124" y="1755" type="line"/>
      <point x="119" y="1813" type="line"/>
      <point x="62" y="1744" type="line"/>
      <point x="58" y="1744" type="line"/>
      <point x="-65" y="1825" type="line"/>
      <point x="-71" y="1825" type="line"/>
      <point x="-137" y="1752" type="line"/>
      <point x="-131" y="1694" type="line"/>
      <point x="-70" y="1762" type="line"/>
    </contour>
  </outline>
</glyph>
<glyph name="horizontalbar" format="2">
  <advance width="405"/>
  <unicode hex="2015"/>
  <outline>
    <contour>
      <point x="11" y="726" type="line"/>
      <point x="394" y="726" type="line"/>
      <point x="394" y="875" type="line"/>
      <point x="11" y="875" type="line"/>
    </contour>
  </outline>
</glyph>
<glyph name="E.wide" format="2">
  <advance width="348"/>
  <outline>
    <contour>
      <point x="43" y="0" type="line"/>
      <point x="305" y="0" type="line"/>
      <point x="305" y="149" type="line"/>
      <point x="195" y="149" type="line"/>
      <point x="195" y="726" type="line"/>
      <point x="284" y="726" type="line"/>
      <point x="284" y="875" type="line"/>
      <point x="195" y="875" type="line"/>
      <point x="195" y="1451" type="line"/>
      <point x="304" y="1451" type="line"/>
      <point x="304" y="1600" type="line"/>
      <point x="43" y="1600" type="line"/>
    </contour>
  </outline>
</glyph>
<glyph name="four.smol" format="2">
  <advance width="286"/>
  <outline>
    <contour>
      <point x="150" y="0" type="line"/>
      <point x="246" y="0" type="line"/>
      <point x="246" y="451" type="line"/>
      <point x="279" y="451" type="line"/>
      <point x="279" y="545" type="line"/>
      <point x="246" y="545" type="line"/>
      <point x="246" y="1003" type="line"/>
      <point x="150" y="1003" type="line"/>
      <point x="150" y="545" type="line"/>
      <point x="107" y="545" type="line"/>
      <point x="107" y="602" type="line"/>
      <point x="132" y="1011" type="line"/>
      <point x="43" y="1021" type="line"/>
      <point x="10" y="601" type="line"/>
      <point x="10" y="451" type="line"/>
      <point x="150" y="451" type="line"/>
    </contour>
  </outline>
</glyph>
<glyph name="three.smol" format="2">
  <advance width="284"/>
  <outline>
    <contour>
      <point x="20" y="0" type="line"/>
      <point x="260" y="0" type="line"/>
      <point x="260" y="555" type="line"/>
      <point x="209" y="555" type="line"/>
      <point x="254" y="698" type="line"/>
      <point x="254" y="1003" type="line"/>
      <point x="26" y="1003" type="line"/>
      <point x="26" y="669" type="line"/>
      <point x="122" y="669" type="line"/>
      <point x="122" y="909" type="line"/>
      <point x="158" y="909" type="line"/>
      <point x="158" y="691" type="line"/>
      <point x="120" y="555" type="line"/>
      <point x="77" y="555" type="line"/>
      <point x="77" y="461" type="line"/>
      <point x="164" y="461" type="line"/>
      <point x="164" y="94" type="line"/>
      <point x="117" y="94" type="line"/>
      <point x="117" y="364" type="line"/>
      <point x="20" y="364" type="line"/>
    </contour>
  </outline>
</glyph>
